<?xml version="1.0" standalone="no"?>
<!DOCTYPE svg PUBLIC "-//W3C//DTD SVG 20010904//EN"
 "http://www.w3.org/TR/2001/REC-SVG-20010904/DTD/svg10.dtd">
<svg version="1.0" xmlns="http://www.w3.org/2000/svg"
 width="700.000000pt" height="700.000000pt" viewBox="0 0 700.000000 700.000000"
 preserveAspectRatio="xMidYMid meet">
<metadata>
Created by potrace 1.11, written by Peter Selinger 2001-2013
</metadata>
<g transform="translate(0.000000,700.000000) scale(0.100000,-0.100000)"
fill="#000000" stroke="none">
<path d="M3230 6974 c-662 -59 -1247 -272 -1765 -643 -789 -564 -1305 -1426
-1431 -2386 -35 -273 -35 -651 2 -915 87 -636 338 -1220 740 -1725 114 -143
389 -418 529 -529 588 -468 1273 -728 2012 -765 827 -41 1624 203 2278 699
680 515 1147 1253 1314 2078 56 276 65 370 65 702 1 310 -4 372 -45 610 -107
614 -395 1216 -804 1683 -568 649 -1313 1048 -2191 1173 -105 14 -599 27 -704
18z m640 -200 c1169 -131 2195 -896 2660 -1984 131 -306 212 -621 251 -970 17
-156 14 -528 -5 -695 -80 -663 -334 -1252 -760 -1760 -106 -127 -332 -348
-457 -447 -792 -630 -1804 -866 -2784 -648 -267 59 -503 144 -757 271 -1150
576 -1863 1765 -1825 3044 22 727 270 1402 725 1974 99 125 320 351 447 457
705 592 1592 860 2505 758z"/>
<path d="M3345 6749 c-770 -32 -1508 -343 -2075 -874 -762 -714 -1134 -1726
-1015 -2760 107 -921 604 -1752 1370 -2292 816 -575 1858 -740 2820 -448 1162
353 2048 1351 2258 2545 47 264 62 627 37 880 -85 859 -494 1637 -1150 2187
-635 533 -1410 796 -2245 762z m1871 -2009 c74 -37 157 -118 191 -188 22 -45
25 -62 21 -115 -3 -35 -13 -78 -23 -97 -22 -43 -102 -128 -137 -146 -15 -8
-28 -18 -28 -23 0 -4 27 -27 60 -50 66 -46 207 -181 261 -250 l35 -44 46 69
c25 38 59 94 76 124 31 55 92 195 92 211 0 5 -17 13 -38 19 -68 18 -99 77 -64
120 25 30 97 38 364 39 182 1 188 0 214 -22 19 -17 27 -33 27 -55 0 -45 -27
-70 -82 -77 -149 -20 -234 -102 -449 -438 -45 -70 -82 -133 -82 -141 0 -19 99
-162 146 -210 86 -89 180 -90 367 -4 78 36 87 33 94 -35 14 -118 -104 -203
-311 -228 -113 -13 -230 -1 -307 32 -58 25 -127 97 -161 169 l-23 49 -90 -81
c-101 -90 -128 -106 -235 -139 -138 -42 -317 -27 -427 37 -138 82 -220 271
-196 455 20 151 84 241 255 357 l87 59 -50 49 c-83 81 -104 125 -104 219 0
100 29 169 106 250 109 115 243 147 365 85z m-3740 -2 c3 -12 3 -290 -1 -618
-4 -328 -4 -615 -1 -637 4 -22 16 -50 27 -62 22 -23 68 -28 87 -9 15 15 52
-17 52 -46 0 -65 -65 -97 -211 -104 -100 -4 -108 -3 -129 18 -15 15 -20 30
-17 46 l4 24 -34 -20 c-175 -103 -409 -67 -490 76 -103 179 -68 438 78 584 87
87 183 120 347 120 l99 0 8 169 c4 93 4 179 0 192 -4 12 -25 39 -46 59 -48 46
-50 76 -8 124 35 41 159 106 200 106 20 0 30 -6 35 -22z m1850 -15 c4 -15 3
-209 -1 -433 -10 -463 -10 -498 -2 -506 16 -17 65 15 152 97 94 91 112 119 76
119 -10 0 -29 8 -41 18 -18 14 -21 25 -16 45 8 34 13 34 218 42 163 5 167 5
178 -16 9 -15 9 -28 0 -49 -12 -28 -30 -38 -105 -59 -30 -8 -70 -37 -145 -107
-58 -53 -106 -100 -108 -104 -5 -12 75 -112 183 -227 85 -91 117 -117 169
-142 72 -34 96 -72 71 -108 -12 -18 -31 -21 -167 -26 -166 -6 -220 0 -251 31
-27 28 -16 67 23 80 16 6 30 16 30 22 0 14 -197 242 -224 259 -31 21 -39 -2
-44 -122 -5 -125 3 -147 55 -147 37 0 63 -27 63 -65 0 -70 -52 -83 -264 -66
-104 8 -144 15 -158 27 -37 34 -18 65 59 98 30 13 45 27 53 50 13 37 13 943 1
1021 -5 31 -15 53 -26 60 -10 5 -31 21 -47 35 -39 35 -30 58 48 115 85 62 131
84 176 85 33 0 39 -4 44 -27z m-1103 -633 c114 -54 187 -214 127 -278 -20 -21
-28 -22 -215 -22 -107 0 -217 -5 -246 -11 l-51 -11 4 -57 c2 -35 15 -81 35
-121 54 -114 139 -179 236 -180 56 0 98 16 151 59 43 35 67 39 90 15 25 -25
19 -50 -21 -90 -87 -85 -187 -125 -308 -126 -185 0 -301 95 -341 281 -49 231
40 435 230 525 87 42 103 45 192 41 46 -2 87 -11 117 -25z m727 10 c15 -15 20
-33 20 -76 0 -123 -54 -147 -154 -69 -43 33 -68 45 -92 45 -39 0 -80 -33 -89
-72 -9 -36 45 -95 153 -165 100 -67 148 -121 168 -190 26 -88 -2 -162 -88
-237 -91 -80 -222 -111 -321 -77 -113 39 -178 181 -122 267 27 41 50 30 114
-55 45 -59 70 -82 96 -91 86 -28 165 53 131 134 -17 40 -45 64 -133 115 -124
71 -172 152 -160 268 8 74 48 138 111 178 44 27 58 30 125 30 59 0 85 -5 119
-23 23 -12 42 -19 42 -14 0 12 39 52 50 52 6 0 19 -9 30 -20z m1419 -374 c9
-11 11 -165 6 -643 -6 -597 -6 -630 12 -663 20 -39 52 -49 91 -29 22 12 26 11
43 -10 23 -29 24 -49 3 -80 -26 -37 -80 -53 -197 -59 -120 -5 -147 5 -147 58
l0 26 -72 -35 c-68 -34 -77 -36 -172 -36 -84 0 -109 4 -151 23 -125 57 -180
166 -180 352 1 120 28 207 94 293 88 116 175 155 366 166 l120 6 7 160 c4 88
5 172 2 186 -3 14 -23 43 -44 64 -74 72 -47 130 91 199 77 39 110 44 128 22z
m-2065 -542 c10 -9 16 -33 16 -58 0 -41 2 -44 31 -50 17 -3 63 -6 102 -6 59 0
75 -4 94 -22 25 -23 32 -81 11 -94 -7 -4 -62 -8 -123 -8 l-110 -1 -8 -75 c-11
-100 -2 -385 14 -434 7 -21 24 -45 37 -54 23 -15 29 -14 88 6 79 28 92 28 105
-2 16 -35 -11 -79 -64 -105 -55 -27 -167 -41 -236 -30 -117 18 -132 66 -132
423 0 147 -4 246 -10 258 -7 14 -19 18 -40 16 -34 -3 -49 13 -49 53 0 22 5 28
34 33 43 8 119 59 141 94 26 41 57 72 71 72 7 0 20 -7 28 -16z m2552 -88 c19
-14 20 -24 19 -361 l-1 -346 52 -25 c104 -49 67 -109 -75 -121 -90 -8 -255 5
-278 22 -14 11 -16 18 -8 40 10 28 17 34 69 57 19 8 33 24 37 42 4 15 9 131
10 257 l3 229 -32 33 c-36 37 -41 66 -14 89 19 18 172 97 187 98 6 0 20 -6 31
-14z m-1999 -22 l26 -26 -7 -201 c-12 -364 22 -467 156 -467 61 0 143 40 163
81 15 29 16 56 10 243 -4 116 -11 220 -15 232 -5 12 -27 29 -49 38 -32 12 -41
21 -41 40 0 23 8 26 108 50 119 29 181 33 183 14 1 -7 2 -141 3 -298 1 -157 6
-308 10 -337 l8 -52 62 -3 c57 -3 61 -5 64 -28 2 -17 -5 -33 -20 -47 -25 -23
-147 -58 -240 -69 -50 -6 -57 -4 -67 14 -6 11 -11 32 -11 46 0 14 -1 26 -3 26
-2 0 -42 -20 -89 -44 -47 -25 -106 -48 -132 -51 -97 -15 -194 32 -235 114 -30
57 -40 133 -46 341 -4 107 -11 210 -17 228 -5 18 -25 44 -44 58 -62 48 -38 84
71 107 102 22 122 21 152 -9z m-1012 -10 c22 -10 43 -19 46 -21 3 -2 11 8 17
22 10 21 18 26 39 23 38 -4 55 -40 50 -105 -8 -110 -72 -124 -170 -37 -49 45
-96 46 -138 5 -56 -56 -31 -105 99 -191 98 -65 160 -124 183 -175 48 -104 3
-221 -116 -303 -40 -27 -146 -62 -188 -62 -95 0 -189 58 -222 137 -38 90 4
200 62 162 10 -6 37 -38 61 -70 23 -33 57 -68 75 -80 95 -59 202 59 136 152
-11 16 -48 45 -83 64 -152 85 -199 146 -198 260 1 119 59 199 172 236 38 13
130 4 175 -17z m3798 -18 c118 -59 193 -143 227 -254 81 -260 -101 -531 -369
-549 -337 -23 -556 300 -410 606 50 106 165 203 276 231 21 5 76 8 121 6 72
-3 94 -9 155 -40z"/>
<path d="M5045 4591 c-16 -10 -38 -28 -49 -39 -26 -29 -32 -101 -13 -139 19
-37 116 -133 134 -133 21 0 64 86 72 144 19 139 -53 223 -144 167z"/>
<path d="M4958 3979 c-32 -35 -72 -93 -90 -128 -28 -54 -34 -78 -36 -145 -3
-73 -1 -86 25 -136 74 -141 252 -195 405 -123 44 21 77 45 104 77 66 80 70 70
-79 228 -72 77 -164 174 -202 216 l-71 75 -56 -64z"/>
<path d="M1035 3991 c-55 -25 -93 -66 -124 -131 -34 -73 -36 -196 -3 -280 26
-66 88 -135 146 -161 78 -35 175 -20 226 35 23 25 24 33 22 129 -4 162 -20
306 -39 346 -38 76 -138 104 -228 62z"/>
<path d="M1965 3992 c-29 -18 -100 -91 -93 -97 2 -1 67 -5 146 -8 159 -7 166
-5 141 54 -26 64 -129 90 -194 51z"/>
<path d="M3956 2983 c-38 -10 -96 -56 -125 -100 -78 -118 -63 -307 34 -422 63
-73 201 -105 272 -61 63 38 67 53 59 229 -11 257 -28 316 -102 347 -32 14 -99
17 -138 7z"/>
<path d="M5420 2987 c-42 -10 -95 -58 -121 -109 -40 -79 -59 -220 -43 -321 10
-60 63 -138 116 -170 209 -129 394 198 262 464 -55 111 -129 158 -214 136z"/>
</g>
</svg>
