<?xml version="1.0" encoding="UTF-8" standalone="no"?><!DOCTYPE svg PUBLIC "-//W3C//DTD SVG 1.1//EN" "http://www.w3.org/Graphics/SVG/1.1/DTD/svg11.dtd"><svg width="100%" height="100%" viewBox="0 0 711 323" version="1.1" xmlns="http://www.w3.org/2000/svg" xmlns:xlink="http://www.w3.org/1999/xlink" xml:space="preserve" style="fill-rule:evenodd;clip-rule:evenodd;stroke-linejoin:round;stroke-miterlimit:1.41421;"><g id="Artboard"><path d="M546.108,92.857c0.166,-0.147 0.307,-0.272 0.435,-0.378c0.025,0.025 0.053,0.053 0.078,0.078l47.503,50.281c1.684,1.788 3.497,3.816 3.541,5.25c0.037,1.103 -0.975,2.897 -1.344,3.556c-6.059,10.682 -16.906,18.36 -29.003,20.535c-11.635,2.081 -23.656,-1.022 -32.416,-8.332c-10.912,-9.09 -15.312,-22.884 -11.784,-36.903c2.928,-11.618 10.669,-23.087 22.99,-34.087Zm15.247,-31.422c-1.459,1.6 -2.112,1.762 -2.253,1.803c-0.365,-0.069 -1.147,-0.578 -2.234,-1.444l-0.788,-0.662c-5.54,-4.65 -10.375,-8.922 -13.425,-14.088c-2.625,-4.459 -3.309,-9.422 -1.918,-13.972c1.521,-4.984 5.262,-9.121 10.54,-11.646c1.931,-0.919 4.006,-1.407 6.025,-1.407c2.288,0 4.413,0.647 6,1.835c1.875,1.387 3.431,3.812 4.625,7.2c3.816,10.859 1.172,23.872 -6.572,32.381Zm146.282,100.609l-5.585,2.816c-9.684,4.834 -20.878,9.991 -31.231,9.991c-3.563,0 -6.756,-0.597 -9.747,-1.838c-2.919,-1.216 -5.669,-3.041 -8.409,-5.603c-4.322,-4.034 -7.935,-9.166 -11.878,-14.966l-7.197,-10.606c-0.525,-0.766 -1.488,-2.194 -1.519,-2.766c-0.044,-0.684 1.128,-2.521 1.628,-3.296l9.828,-15.363c6.935,-10.844 14.094,-22.053 22.191,-32.516c11.447,-14.759 22.212,-22.084 32.912,-22.4c3.228,-0.087 9.241,-0.253 11.747,-5.75c2.338,-5.031 -0.694,-10.44 -4.79,-12.537c-2.594,-1.375 -5.232,-1.563 -7.463,-1.563l-55.947,1.525c-1.459,0.044 -4.187,0.129 -6.64,2.066c-2.447,1.984 -3.516,5.044 -2.838,8.172c0.838,3.897 4.359,7.478 8.369,8.519c1.178,0.306 2.434,0.49 3.656,0.643c0.981,0.125 2.466,0.319 2.753,0.466c0.003,0.009 0.444,1.078 -0.887,4.734c-6.413,17.491 -15.46,33.732 -26.91,48.354c-12.609,-17.3 -28.522,-32.269 -46.55,-43.794c5.072,-2.953 10.057,-6.325 14.366,-10.613c8.191,-8.143 12.334,-18.325 11.359,-27.928c-0.806,-8.1 -5.25,-16.128 -13.19,-23.853c-8.8,-8.559 -17.994,-13.234 -27.35,-13.891c-14.097,-0.928 -29.716,8.15 -39.082,22.569c-8.537,13.113 -10.05,27.731 -4.046,39.11c3.628,6.837 9.2,11.756 14.606,16.534l0.497,0.437c0.653,0.579 1.309,1.157 1.956,1.741c-3.466,2.588 -7.225,5.025 -10.356,7.05c-8.522,5.534 -17.335,11.256 -23.778,19.888c-8.375,11.168 -11.916,26.812 -9.719,42.921c1.703,12.438 6.403,23.247 13.587,31.26c9.938,11.09 25.328,17.2 43.335,17.2c13.74,0 27.862,-3.766 38.747,-10.331c5.259,-3.175 10.003,-7.772 14.184,-11.819c3.422,-3.3 6.925,-6.681 10.478,-9.16c3.541,8.882 8.016,17.554 15.913,23.522c10.49,7.935 24.046,8.857 33.331,8.857c2.894,0 5.787,-0.097 8.678,-0.244c14.772,-0.763 25.672,-4.06 34.291,-10.381c6.103,-4.432 12.096,-12.666 8.9,-21.272l-2.2,-5.885Z" style="fill:#808285;fill-rule:nonzero;"/><path d="M63.84,173.716c5.659,-1.703 10.04,-5.378 11.725,-9.815c1.343,-3.554 1.09,-7.641 0.853,-11.604l-1.791,-28.937c-0.503,-8.103 -1.247,-15.231 -5.35,-20.463c-3.537,-4.509 -9.54,-7.203 -16.062,-7.209l-0.05,0c-8.21,0 -15.513,3.131 -21.125,9.066c-7.191,7.597 -11.088,19.131 -10.422,30.843c0.669,11.832 5.231,22.7 12.515,29.835c2.738,2.687 6.066,4.95 9.619,6.556c6.666,3.003 13.797,3.6 20.088,1.728Zm52.493,10.406c-2.418,3.15 -6.275,4.4 -9.715,5.232c-6.06,1.434 -12.222,2.159 -18.403,2.159c-2.5,0 -5,-0.116 -7.497,-0.353c-1.397,-0.134 -4.66,-0.434 -6.269,-3.072c-1.231,-1.981 -0.862,-4.228 -0.569,-6.034c0.128,-0.769 0.36,-2.21 0.107,-2.419c-0.007,0.006 -0.641,-0.328 -3.022,1.394c-12.422,8.922 -29.178,11.565 -43.753,6.878c-5.482,-1.76 -13.1,-5.347 -18.279,-12.422c-3.756,-5.128 -5.59,-11.231 -7.012,-17.066c-6.253,-25.665 3.087,-52.084 23.256,-65.747c13.241,-8.968 30.269,-8.893 45.222,-8.109c0.925,0.053 2.922,0.15 3.538,-0.569c0.453,-0.512 0.5,-1.787 0.525,-2.634l1.265,-35.438c0.163,-4.484 0.113,-8.74 -2.153,-11.578c-0.841,-1.043 -2.025,-1.959 -3.287,-2.931c-2.325,-1.791 -4.96,-3.819 -5.76,-7.209c-1.065,-4.497 1.697,-9.135 7.778,-13.057c5.7,-3.671 11.794,-6.768 18.125,-9.209c3.76,-1.45 5.585,0.019 6.332,1.022c0.818,1.097 0.865,2.341 0.893,3.081c0.878,25.291 0.119,50.981 -0.615,75.819c-0.725,24.487 -1.475,49.809 -0.644,74.675c0.194,5.797 0.619,11.328 3.756,15.241c0.416,0.531 0.931,1.012 1.525,1.446c1.928,1.404 4.45,2.075 6.553,1.694c1.397,-0.237 2.466,-0.872 3.175,-1.903l1.128,-1.628l1.794,0.847c1.791,0.85 3.053,2.453 3.556,4.547c0.604,2.515 0.01,5.322 -1.55,7.343Z" style="fill-rule:nonzero;"/><path d="M186.062,108.907c-0.216,-3.475 -2.913,-7.669 -5.394,-9.7c-4.169,-3.419 -10.466,-4.622 -16.025,-3.035c-0.738,0.2 -1.453,0.441 -2.15,0.722c-7.816,3.094 -13.181,10.128 -16.313,15.475c-0.062,0.107 -0.112,0.197 -0.153,0.269c0.325,0.05 0.772,0.056 1.35,0.006c3.831,-0.397 7.675,-0.59 11.513,-0.59c6.037,0 12.059,0.484 18.018,1.453c3.138,0.494 6.341,0.856 7.888,-0.76c0.947,-0.987 1.359,-2.253 1.266,-3.84Zm24.14,56.281c0.953,2.325 0.191,4.884 -2.259,7.619c-10.216,11.412 -25.228,17.853 -40.391,17.853c-3.906,0 -7.825,-0.422 -11.672,-1.306c-8.443,-1.938 -15.581,-5.8 -20.65,-11.172c-5.206,-5.516 -8.775,-13.085 -10.903,-23.144c-2.7,-12.75 -2.259,-25.025 1.281,-35.497c4.594,-13.6 14.822,-25.044 28.072,-31.415c3.266,-1.557 6.669,-2.785 10.11,-3.625c11.178,-2.747 22.568,-1.435 31.253,3.584c9.965,5.756 16.231,16.703 15.594,27.225c-0.194,3.15 -1.119,5.366 -2.841,6.794c-1.688,1.403 -3.772,1.722 -5.594,1.893c-7.612,0.757 -15.39,0.419 -22.922,0.06c-11.553,-0.519 -22.503,-1.019 -33.043,2.125c-0.913,0.269 -1.844,0.572 -2.375,1.103c-0.929,0.903 -0.985,2.772 -0.932,4.316c0.632,18.475 14.322,40.284 32.944,42.034c7.619,0.741 15.447,-1.994 20.988,-7.256l0.668,-0.647c1.263,-1.235 2.688,-2.631 4.644,-3.394c2.841,-1.128 6.763,-0.237 8.028,2.85Z" style="fill-rule:nonzero;"/><path d="M285.987,155.851c1.771,14.55 -9.744,26.262 -20.129,31.871c-7.04,3.791 -14.484,5.725 -21.45,5.725c-4.937,0 -9.628,-0.956 -13.793,-2.909c-9.672,-4.55 -16.082,-15.516 -14.907,-25.519c0.254,-2.168 0.854,-4.268 1.794,-6.222c0.341,-0.687 1.35,-2.793 3.597,-3.35c1.391,-0.365 3.522,-0.153 5.813,2.722c1.518,1.928 2.943,4.016 4.356,6.103c3.734,5.494 7.259,10.675 12.756,12.832c5.044,1.959 11.219,0.659 15.016,-3.2c3.797,-3.857 5.025,-10.057 2.981,-15.063c-2.563,-6.312 -8.959,-9.675 -15.716,-13.237c-4.172,-2.2 -8.472,-4.469 -12.078,-7.557c-6.084,-5.193 -9.825,-13.171 -10.247,-21.903c-0.425,-8.74 2.51,-17.056 8.075,-22.828c5.472,-5.684 13.507,-8.925 22.11,-8.925l0.384,0c7.344,0.085 14.244,2.51 19.478,6.775c0.619,-1.565 1.385,-3.081 2.288,-4.515c0.715,-1.129 1.743,-2.466 3.484,-2.91c1.25,-0.309 2.525,-0.078 3.616,0.656c1.85,1.272 2.759,3.76 3,5.685c1.122,9.009 0.043,14.947 -3.21,17.64c-1.353,1.119 -3.768,2.225 -7.584,0.979c-3.394,-1.1 -5.938,-3.647 -8.4,-6.104c-1.594,-1.6 -3.119,-3.115 -4.672,-4.006c-5.356,-3.072 -12.831,-1.675 -16.325,3.006c-2.047,2.719 -2.794,5.325 -2.303,7.96c1.378,7.328 12.059,13.975 19.856,18.828c2.728,1.703 5.178,3.228 6.944,4.578c9.006,6.834 14.278,14.756 15.266,22.888Z" style="fill-rule:nonzero;"/><path d="M412.777,185.135c-0.312,1.869 -1.344,3.344 -2.912,4.162c-1.335,0.691 -2.735,0.725 -3.844,0.75l-31.147,0.672c-5.872,0.128 -12.519,-0.128 -16.766,-4.731c-1.012,-0.797 -1.543,-2.312 -1.228,-3.928c0.447,-2.228 2.466,-4.359 4.822,-5.078c0.594,-0.185 1.235,-0.331 1.869,-0.478c1.397,-0.316 2.716,-0.616 3.137,-1.313c0.5,-0.822 -0.268,-2.537 -2.056,-4.6l-24.544,-28.053c-2.825,-3.241 -4.706,-4.028 -5.506,-3.759c-1,0.384 -4.228,3.278 -4.022,24.572l0,0.618c0.025,2.46 0.044,4.997 0.807,7.169c0.568,1.625 1.862,3.516 3.74,3.981c0.613,0.147 1.35,0.178 2.125,0.194c0.941,0.019 1.875,0.056 2.785,0.247c3.484,0.719 5.937,3.087 6.578,6.334c0.64,3.241 -0.775,6.66 -3.51,8.503c-2.656,1.788 -6.397,2.282 -10.181,2.282c-2.716,0 -5.437,-0.25 -7.806,-0.475c-0.978,-0.088 -1.885,-0.172 -2.678,-0.232l-23.547,-1.637c-1.166,-0.072 -2.938,-0.2 -4.41,-1.281c-2.425,-1.8 -3.468,-3.76 -3.1,-5.828c0.732,-4.116 7.004,-5.966 10.369,-6.96l0.772,-0.231c2.325,-0.738 4.353,-2.978 5.425,-5.981c1.075,-3.003 1.197,-6.403 1.313,-9.694c0.69,-18.688 0.484,-37.688 0.284,-56.066c-0.244,-22.375 -0.622,-43.79 -1.125,-64.028c-0.088,-3.681 -0.881,-5.762 -2.916,-7.7c-0.481,-0.45 -1.756,-1.053 -2.884,-1.578c-3.231,-1.531 -8.647,-4.084 -6.706,-9.409c0.681,-1.903 2.247,-2.935 3.506,-3.778c2.066,-1.385 3.987,-2.86 5.959,-4.369c6.832,-5.244 14.563,-11.238 23.957,-10.6l2.006,0.128l0.172,2.009c2.125,25.428 0.959,51.9 -0.172,77.488c-0.513,11.884 -1.053,24.178 -1.244,36.081c-0.05,3.231 0.391,7.253 2.766,8.047c1.697,0.584 3.912,-0.722 5.668,-1.913c6.635,-4.49 12.697,-9.85 17.994,-15.918c0.475,-0.553 1.106,-1.21 1.788,-1.944c4.412,-4.675 6.453,-7.544 6.081,-8.55c0,-0.006 -0.416,-0.609 -2.863,-0.834c-6.434,-0.594 -8.046,-3.413 -8.265,-5.679c-0.263,-2.859 1.934,-5.178 4.237,-5.99c0.56,-0.197 1.103,-0.319 1.653,-0.397c1.385,-0.203 2.741,-0.084 3.938,0.009c11.034,0.9 21.997,0.51 32.75,-1.115c1.55,-0.241 3.662,-0.55 5.597,0.5c1.753,0.934 2.784,2.69 2.862,4.809c0.091,2.697 -1.428,5.578 -3.687,7c-2.25,1.431 -4.722,1.803 -7.097,2.156c-0.928,0.141 -1.844,0.275 -2.734,0.478c-5.544,1.3 -10.125,5.61 -14.154,9.425l-19.012,17.932c-0.025,0.506 0.237,5.34 21.659,27.728l1.003,1.05c1.007,1.062 2.05,2.209 3.132,3.375c5.681,6.2 12.112,13.231 19.212,15.765l1.228,0.429c2.307,0.781 4.925,1.665 6.891,3.696c1.609,1.678 2.409,4.244 2.031,6.538Z" style="fill-rule:nonzero;"/><path d="M162.48,285.276c1.772,14.543 -9.743,26.256 -20.122,31.865c-7.043,3.797 -14.487,5.725 -21.456,5.725c-4.931,0 -9.625,-0.956 -13.797,-2.909c-9.665,-4.547 -16.078,-15.516 -14.9,-25.513c0.253,-2.175 0.857,-4.262 1.794,-6.222c0.341,-0.681 1.35,-2.8 3.597,-3.35c1.394,-0.371 3.522,-0.159 5.809,2.722c1.522,1.922 2.944,4.01 4.36,6.103c3.731,5.494 7.253,10.675 12.753,12.819c5.044,1.966 11.219,0.666 15.015,-3.2c3.794,-3.856 5.025,-10.04 2.985,-15.05c-2.563,-6.312 -8.96,-9.681 -15.719,-13.237c-4.169,-2.203 -8.472,-4.475 -12.078,-7.55c-6.081,-5.191 -9.825,-13.185 -10.244,-21.913c-0.431,-8.74 2.51,-17.059 8.075,-22.828c5.472,-5.681 13.51,-8.922 22.11,-8.922l0.381,0c7.344,0.078 14.244,2.513 19.478,6.775c0.619,-1.569 1.387,-3.084 2.287,-4.519c0.716,-1.121 1.741,-2.465 3.485,-2.909c1.25,-0.306 2.531,-0.087 3.615,0.653c1.854,1.281 2.763,3.772 3,5.681c1.122,9.016 0.047,14.947 -3.209,17.647c-1.347,1.116 -3.769,2.222 -7.578,0.975c-3.394,-1.103 -5.941,-3.643 -8.406,-6.097c-1.594,-1.6 -3.119,-3.118 -4.672,-4.009c-5.353,-3.072 -12.835,-1.678 -16.328,3.009c-2.041,2.716 -2.788,5.316 -2.297,7.954c1.378,7.334 12.056,13.981 19.859,18.84c2.728,1.697 5.175,3.216 6.941,4.572c9.006,6.841 14.278,14.75 15.262,22.888Z" style="fill-rule:nonzero;"/><path d="M233.69,300.747c1.44,0.994 2.134,2.863 1.872,4.982c-0.607,5.034 -4.944,9.093 -12.238,11.412c-6.031,1.913 -12.422,2.888 -18.784,2.888c-2.044,0 -4.085,-0.103 -6.119,-0.307c-3.419,-0.346 -7.753,-1.109 -11,-3.953c-4.309,-3.772 -5.175,-9.637 -5.647,-14.837c-1.706,-18.385 -1.925,-37.05 -0.656,-55.488c0.284,-4.193 0.575,-8.428 -1.075,-11.762c-0.86,-1.722 -2.572,-3.172 -4.388,-3.688c-0.85,-0.25 -2.09,-0.384 -3.184,0.288l-1.8,1.1l-1.275,-1.653c-1.422,-1.857 -1.888,-4.303 -1.25,-6.569l0.4,-1.434l1.469,-0.225c9.762,-1.594 18.693,-8.016 23.29,-16.763c0.85,-1.616 1.719,-2.794 2.685,-3.6c1.431,-1.166 3.068,-1.512 4.631,-1c1.641,0.556 3.575,2.178 3.484,6.781l-0.175,8.063c5.228,0.915 10.519,1.244 15.857,0.975l0.931,-0.06c3.74,-0.221 7.981,-0.459 11.587,1.757c2.588,1.593 4.241,4.781 4.103,7.922c-0.109,2.478 -1.337,4.487 -3.384,5.518l-0.569,0.282l-21.225,-1.294c-2.19,-0.122 -4.597,-0.166 -5.734,1.044c-0.872,0.896 -1.081,2.581 -1.228,4.24c-1.675,19.372 -3.019,39.76 0.484,57.35c1.36,6.866 3.841,10.9 7.369,12c3.131,0.975 6.553,-0.497 10.178,-2.065c2.269,-0.982 4.622,-1.988 7.113,-2.5c0.656,-0.141 2.637,-0.557 4.278,0.596Z" style="fill-rule:nonzero;"/><path d="M356.59,311.647c-1.85,1.804 -4.244,2.619 -6.513,3.329c-9.065,2.759 -18.39,4.734 -27.75,5.896c-0.731,0.085 -2.634,0.335 -3.981,-1.075c-1.056,-1.093 -1.084,-2.509 -1.084,-3.206l-0.1,-8.056c0,-0.438 -0.029,-0.725 -0.047,-0.916c-0.141,0.107 -0.413,0.244 -0.794,0.5c-7.291,4.694 -14.822,9.547 -23.509,11.966c-3.485,0.962 -6.922,1.441 -10.225,1.441c-6.225,0 -11.95,-1.688 -16.475,-4.988c-10.994,-8.009 -12.807,-22.912 -13.125,-37.837l-0.694,-32.366c-0.238,-11.444 -2.822,-17.775 -7.9,-19.691l-0.994,-0.378l0,-0.006c-0.953,-0.378 -2.281,-1.05 -2.975,-2.509c-0.531,-1.11 -0.541,-2.354 -0.016,-3.491c0.891,-1.972 3.191,-3.216 5.041,-3.728c5.841,-1.619 11.844,-2.831 17.834,-3.606c3.094,-0.404 7.519,-0.582 10.107,2.628c1.815,2.234 1.825,5.147 1.831,7.075c0.037,6.397 -0.253,13 -0.559,19.993c-0.685,15.535 -1.4,31.594 1.684,45.466c1.412,6.359 4.791,11.469 9.269,14.009c5.284,3.01 12.778,2.832 20.562,-0.512c4.956,-2.113 8.216,-4.669 9.969,-7.806c2.281,-4.091 2.081,-9.335 1.897,-13.966l-1.722,-43.275c-0.119,-2.978 -0.488,-5.894 -2.266,-7.037c-0.847,-0.544 -2.197,-0.891 -3.5,-1.232c-2.712,-0.703 -6.806,-1.784 -6.862,-6l-0.019,-1.747l1.681,-0.512c9.663,-2.916 19.61,-5.169 29.578,-6.713c1.082,-0.165 3.338,-0.512 5.016,1.025c1.722,1.588 1.528,3.932 1.441,5.06c-2.241,26.519 -2.007,53.419 0.665,79.95c0.063,0.622 0.219,2.1 0.691,2.472c0.384,0.293 1.487,0.281 2.1,0.268l12.591,-0.146l0.696,1.134c1.782,2.937 0.566,6.544 -1.543,8.587Z" style="fill-rule:nonzero;"/><path d="M431.202,303.135c5.666,-1.709 10.041,-5.372 11.731,-9.816c1.344,-3.553 1.088,-7.64 0.857,-11.597l-1.794,-28.931c-0.503,-8.109 -1.253,-15.24 -5.347,-20.475c-3.541,-4.506 -9.541,-7.197 -16.066,-7.209l-0.056,0c-8.203,0 -15.506,3.137 -21.115,9.062c-7.191,7.607 -11.097,19.135 -10.425,30.853c0.671,11.825 5.231,22.7 12.518,29.829c2.735,2.693 6.066,4.956 9.613,6.556c6.665,3.003 13.8,3.6 20.084,1.728Zm52.497,10.406c-2.416,3.15 -6.269,4.413 -9.716,5.231c-6.056,1.441 -12.218,2.16 -18.396,2.16c-2.504,0 -5.004,-0.122 -7.5,-0.347c-1.391,-0.134 -4.657,-0.434 -6.275,-3.078c-1.222,-1.981 -0.854,-4.228 -0.569,-6.035c0.14,-0.768 0.369,-2.209 0.112,-2.412c0,0.006 -0.637,-0.334 -3.022,1.387c-12.421,8.922 -29.181,11.572 -43.743,6.879c-5.494,-1.754 -13.113,-5.341 -18.288,-12.422c-3.753,-5.125 -5.584,-11.238 -7.012,-17.066c-6.257,-25.659 3.087,-52.081 23.253,-65.741c13.247,-8.965 30.269,-8.893 45.222,-8.106c0.928,0.044 2.925,0.153 3.54,-0.565c0.45,-0.525 0.5,-1.794 0.525,-2.644l1.263,-35.444c0.165,-4.478 0.122,-8.741 -2.153,-11.572c-0.838,-1.037 -2.028,-1.965 -3.285,-2.94c-2.325,-1.791 -4.962,-3.822 -5.762,-7.204c-1.063,-4.496 1.697,-9.137 7.781,-13.056c5.697,-3.669 11.788,-6.775 18.122,-9.209c3.759,-1.453 5.578,0.012 6.331,1.012c0.822,1.1 0.872,2.344 0.897,3.085c0.872,25.297 0.122,50.987 -0.619,75.828c-0.725,24.5 -1.468,49.806 -0.64,74.672c0.19,5.797 0.625,11.315 3.756,15.24c0.412,0.532 0.931,1.013 1.525,1.447c1.928,1.41 4.456,2.075 6.556,1.697c1.397,-0.241 2.466,-0.881 3.172,-1.9l1.128,-1.634l1.791,0.84c1.787,0.857 3.05,2.472 3.562,4.547c0.594,2.522 0.007,5.335 -1.556,7.35Z" style="fill-rule:nonzero;"/><path d="M542.152,312.819c-0.506,3.9 -5.79,5.685 -7.397,6.147c-4.54,1.288 -10.015,1.544 -15.125,1.544c-1.847,0 -3.65,-0.034 -5.347,-0.059l-1.328,-0.032c-6.306,-0.109 -12.634,-0.5 -18.787,-1.184c-0.697,-0.078 -1.766,-0.188 -2.778,-0.756c-1.538,-0.872 -2.397,-2.428 -2.369,-4.278c0.037,-2.425 1.569,-4.913 3.744,-6.063c1.422,-0.75 2.928,-1.091 4.259,-1.391c1.166,-0.262 2.259,-0.512 3.131,-0.965c3.444,-1.831 3.985,-7.2 4.066,-11.681l0.866,-45.794c0.096,-5.11 0.178,-9.31 -2.532,-12.616c-0.403,-0.49 -1.203,-1.031 -1.972,-1.562c-2.131,-1.453 -6.55,-4.5 -2.937,-9.797c1.019,-1.497 2.566,-2.3 3.681,-2.9l15.778,-8.256c4.632,-2.425 8.453,-2.241 10.522,0.5c1.372,1.837 1.25,4.078 1.166,5.553c-0.966,15.547 -1.325,31.331 -1.075,46.906c0.1,5.156 0.319,10.303 0.537,15.447c0.128,2.912 0.257,5.831 0.353,8.753c0.057,1.556 -0.181,3.266 -0.412,4.925c-0.631,4.462 -0.831,7.259 1.597,8.447c1.05,0.512 2.197,0.812 3.334,1.112c1.635,0.444 3.338,0.91 4.95,1.866c3.003,1.778 4.375,3.847 4.075,6.134Z" style="fill-rule:nonzero;"/><path d="M607.083,306.735c11.879,-2.081 19.294,-14.113 22.038,-23.778c4.109,-14.447 1.85,-31.013 -6.047,-44.306c-5.256,-8.857 -13.044,-13.935 -20.781,-13.935c-1.656,0 -3.31,0.225 -4.941,0.703c-3.075,0.903 -6.04,2.653 -8.837,5.2c-6.378,5.822 -10.375,14.838 -12.225,27.519c-1.988,13.588 -0.653,24.859 3.962,33.528c4.785,8.997 15.569,17.053 26.831,15.069Zm49.254,-31.134c-2.66,15.54 -11.869,29.518 -24.625,37.384c-8.4,5.187 -18.185,7.722 -27.969,7.722c-12.644,0 -25.297,-4.238 -35.016,-12.494c-17.619,-14.947 -23.125,-38.897 -14.044,-61.006c9.075,-22.113 29.738,-35.216 52.869,-33.531c22.56,1.709 42.803,18.896 48.156,40.875c1.65,6.775 1.863,13.859 0.629,21.05Z" style="fill-rule:nonzero;"/></g></svg>