<?xml version="1.0" encoding="UTF-8" standalone="no"?><!DOCTYPE svg PUBLIC "-//W3C//DTD SVG 1.1//EN" "http://www.w3.org/Graphics/SVG/1.1/DTD/svg11.dtd"><svg width="100%" height="100%" viewBox="0 0 284 284" version="1.1" xmlns="http://www.w3.org/2000/svg" xmlns:xlink="http://www.w3.org/1999/xlink" xml:space="preserve" style="fill-rule:evenodd;clip-rule:evenodd;stroke-linejoin:round;stroke-miterlimit:1.41421;"><g><path d="M283.465,142.267c0,78.276 -63.455,141.733 -141.734,141.733c-78.276,0 -141.731,-63.457 -141.731,-141.733c0,-78.277 63.455,-141.733 141.731,-141.733c78.279,0 141.734,63.456 141.734,141.733Z" style="fill:#231f20;fill-rule:nonzero;"/><path d="M141.731,9.78c-73.054,0 -132.487,59.434 -132.487,132.487c0,73.055 59.433,132.489 132.487,132.489c73.056,0 132.49,-59.434 132.49,-132.489c0,-73.053 -59.434,-132.487 -132.49,-132.487Zm0,266.367c-73.821,0 -133.878,-60.059 -133.878,-133.88c0,-73.82 60.057,-133.878 133.878,-133.878c73.822,0 133.881,60.058 133.881,133.878c0,73.821 -60.059,133.88 -133.881,133.88Z" style="fill:#fff;fill-rule:nonzero;"/><path d="M203.395,120.109c0.053,-0.047 0.098,-0.087 0.139,-0.121c0.008,0.008 0.017,0.017 0.025,0.025l15.201,16.09c0.539,0.572 1.119,1.221 1.133,1.68c0.012,0.353 -0.312,0.927 -0.43,1.138c-1.939,3.418 -5.41,5.875 -9.281,6.571c-3.723,0.666 -7.57,-0.327 -10.373,-2.666c-3.492,-2.909 -4.9,-7.323 -3.771,-11.809c0.937,-3.718 3.414,-7.388 7.357,-10.908Zm4.879,-10.055c-0.467,0.512 -0.676,0.564 -0.721,0.577c-0.117,-0.022 -0.367,-0.185 -0.715,-0.462l-0.252,-0.212c-1.773,-1.488 -3.32,-2.855 -4.296,-4.508c-0.84,-1.427 -1.059,-3.015 -0.614,-4.471c0.487,-1.595 1.684,-2.919 3.373,-3.727c0.618,-0.294 1.282,-0.45 1.928,-0.45c0.732,0 1.412,0.207 1.92,0.587c0.6,0.444 1.098,1.22 1.48,2.304c1.221,3.475 0.375,7.639 -2.103,10.362Zm46.81,32.195l-1.787,0.901c-3.099,1.547 -6.681,3.197 -9.994,3.197c-1.14,0 -2.162,-0.191 -3.119,-0.588c-0.934,-0.389 -1.814,-0.973 -2.691,-1.793c-1.383,-1.291 -2.539,-2.933 -3.801,-4.789l-2.303,-3.394c-0.168,-0.245 -0.476,-0.702 -0.486,-0.885c-0.014,-0.219 0.361,-0.807 0.521,-1.055l3.145,-4.916c2.219,-3.47 4.51,-7.057 7.101,-10.405c3.663,-4.723 7.108,-7.067 10.532,-7.168c1.033,-0.028 2.957,-0.081 3.759,-1.84c0.748,-1.61 -0.222,-3.341 -1.533,-4.012c-0.83,-0.44 -1.674,-0.5 -2.388,-0.5l-17.903,0.488c-0.467,0.014 -1.34,0.041 -2.125,0.661c-0.783,0.635 -1.125,1.614 -0.908,2.615c0.268,1.247 1.395,2.393 2.678,2.726c0.377,0.098 0.779,0.157 1.17,0.206c0.314,0.04 0.789,0.102 0.881,0.149c0.001,0.003 0.142,0.345 -0.284,1.515c-2.052,5.597 -4.947,10.794 -8.611,15.473c-4.035,-5.536 -9.127,-10.326 -14.896,-14.014c1.623,-0.945 3.218,-2.024 4.597,-3.396c2.621,-2.606 3.947,-5.864 3.635,-8.937c-0.258,-2.592 -1.68,-5.161 -4.221,-7.633c-2.816,-2.739 -5.758,-4.235 -8.752,-4.445c-4.511,-0.297 -9.509,2.608 -12.506,7.222c-2.732,4.196 -3.216,8.874 -1.295,12.515c1.161,2.188 2.944,3.762 4.674,5.291l0.159,0.14c0.209,0.185 0.419,0.37 0.626,0.557c-1.109,0.828 -2.312,1.608 -3.314,2.256c-2.727,1.771 -5.547,3.602 -7.609,6.364c-2.68,3.574 -3.813,8.58 -3.11,13.735c0.545,3.98 2.049,7.439 4.348,10.003c3.18,3.549 8.105,5.504 13.867,5.504c4.397,0 8.916,-1.205 12.399,-3.306c1.683,-1.016 3.201,-2.487 4.539,-3.782c1.095,-1.056 2.216,-2.138 3.353,-2.931c1.133,2.842 2.565,5.617 5.092,7.527c3.357,2.539 7.695,2.834 10.666,2.834c0.926,0 1.852,-0.031 2.777,-0.078c4.727,-0.244 8.215,-1.299 10.973,-3.322c1.953,-1.418 3.871,-4.053 2.848,-6.807l-0.704,-1.883Z" style="fill:#808285;fill-rule:nonzero;"/><path d="M49.069,145.984c1.811,-0.545 3.213,-1.721 3.752,-3.141c0.43,-1.137 0.349,-2.445 0.273,-3.713l-0.573,-9.26c-0.161,-2.593 -0.399,-4.874 -1.712,-6.548c-1.132,-1.443 -3.053,-2.305 -5.14,-2.307l-0.016,0c-2.627,0 -4.964,1.002 -6.76,2.901c-2.301,2.431 -3.548,6.122 -3.335,9.87c0.214,3.786 1.674,7.264 4.005,9.547c0.876,0.86 1.941,1.584 3.078,2.098c2.133,0.961 4.415,1.152 6.428,0.553Zm16.798,3.33c-0.774,1.008 -2.008,1.408 -3.109,1.674c-1.939,0.459 -3.911,0.691 -5.889,0.691c-0.8,0 -1.6,-0.037 -2.399,-0.113c-0.447,-0.043 -1.491,-0.139 -2.006,-0.983c-0.394,-0.634 -0.276,-1.353 -0.182,-1.931c0.041,-0.246 0.115,-0.707 0.034,-0.774c-0.002,0.002 -0.205,-0.105 -0.967,0.446c-3.975,2.855 -9.337,3.701 -14.001,2.201c-1.754,-0.563 -4.192,-1.711 -5.849,-3.975c-1.202,-1.641 -1.789,-3.594 -2.244,-5.461c-2.001,-8.213 0.988,-16.667 7.442,-21.039c4.237,-2.87 9.686,-2.846 14.471,-2.595c0.296,0.017 0.935,0.048 1.132,-0.182c0.145,-0.164 0.16,-0.572 0.168,-0.843l0.405,-11.34c0.052,-1.435 0.036,-2.797 -0.689,-3.705c-0.269,-0.334 -0.648,-0.627 -1.052,-0.938c-0.744,-0.573 -1.587,-1.222 -1.843,-2.307c-0.341,-1.439 0.543,-2.923 2.489,-4.178c1.824,-1.175 3.774,-2.166 5.8,-2.947c1.203,-0.464 1.787,0.006 2.026,0.327c0.262,0.351 0.277,0.749 0.286,0.986c0.281,8.093 0.038,16.314 -0.197,24.262c-0.232,7.836 -0.472,15.939 -0.206,23.896c0.062,1.855 0.198,3.625 1.202,4.877c0.133,0.17 0.298,0.324 0.488,0.463c0.617,0.449 1.424,0.664 2.097,0.542c0.447,-0.076 0.789,-0.279 1.016,-0.609l0.361,-0.521l0.574,0.271c0.573,0.272 0.977,0.785 1.138,1.455c0.193,0.805 0.003,1.703 -0.496,2.35Z" style="fill:#fff;fill-rule:nonzero;"/><path d="M88.18,125.245c-0.069,-1.112 -0.932,-2.454 -1.726,-3.104c-1.334,-1.094 -3.349,-1.479 -5.128,-0.971c-0.236,0.064 -0.465,0.141 -0.688,0.231c-2.501,0.99 -4.218,3.241 -5.22,4.952c-0.02,0.034 -0.036,0.063 -0.049,0.086c0.104,0.016 0.247,0.018 0.432,0.002c1.226,-0.127 2.456,-0.189 3.684,-0.189c1.932,0 3.859,0.155 5.766,0.465c1.004,0.158 2.029,0.274 2.524,-0.243c0.303,-0.316 0.435,-0.721 0.405,-1.229Zm7.725,18.01c0.305,0.744 0.061,1.563 -0.723,2.438c-3.269,3.652 -8.073,5.713 -12.925,5.713c-1.25,0 -2.504,-0.135 -3.735,-0.418c-2.702,-0.62 -4.986,-1.856 -6.608,-3.575c-1.666,-1.765 -2.808,-4.187 -3.489,-7.406c-0.864,-4.08 -0.723,-8.008 0.41,-11.359c1.47,-4.352 4.743,-8.014 8.983,-10.053c1.045,-0.498 2.134,-0.891 3.235,-1.16c3.577,-0.879 7.222,-0.459 10.001,1.147c3.189,1.842 5.194,5.345 4.99,8.712c-0.062,1.008 -0.358,1.717 -0.909,2.174c-0.54,0.449 -1.207,0.551 -1.79,0.606c-2.436,0.242 -4.925,0.134 -7.335,0.019c-3.697,-0.166 -7.201,-0.326 -10.574,0.68c-0.292,0.086 -0.59,0.183 -0.76,0.353c-0.297,0.289 -0.315,0.887 -0.298,1.381c0.202,5.912 4.583,12.891 10.542,13.451c2.438,0.237 4.943,-0.638 6.716,-2.322l0.214,-0.207c0.404,-0.395 0.86,-0.842 1.486,-1.086c0.909,-0.361 2.164,-0.076 2.569,0.912Z" style="fill:#fff;fill-rule:nonzero;"/><path d="M120.156,140.267c0.567,4.656 -3.118,8.404 -6.441,10.199c-2.253,1.213 -4.635,1.832 -6.864,1.832c-1.58,0 -3.081,-0.306 -4.414,-0.931c-3.095,-1.456 -5.146,-4.965 -4.77,-8.166c0.081,-0.694 0.273,-1.366 0.574,-1.991c0.109,-0.22 0.432,-0.894 1.151,-1.072c0.445,-0.117 1.127,-0.049 1.86,0.871c0.486,0.617 0.942,1.285 1.394,1.953c1.195,1.758 2.323,3.416 4.082,4.106c1.614,0.627 3.59,0.211 4.805,-1.024c1.215,-1.234 1.608,-3.218 0.954,-4.82c-0.82,-2.02 -2.867,-3.096 -5.029,-4.236c-1.335,-0.704 -2.711,-1.43 -3.865,-2.418c-1.947,-1.662 -3.144,-4.215 -3.279,-7.009c-0.136,-2.797 0.803,-5.458 2.584,-7.305c1.751,-1.819 4.322,-2.856 7.075,-2.856l0.123,0c2.35,0.027 4.558,0.803 6.233,2.168c0.198,-0.501 0.443,-0.986 0.732,-1.445c0.229,-0.361 0.558,-0.789 1.115,-0.931c0.4,-0.099 0.808,-0.025 1.157,0.21c0.592,0.407 0.883,1.203 0.96,1.819c0.359,2.883 0.014,4.783 -1.027,5.645c-0.433,0.358 -1.206,0.712 -2.427,0.313c-1.086,-0.352 -1.9,-1.167 -2.688,-1.953c-0.51,-0.512 -0.998,-0.997 -1.495,-1.282c-1.714,-0.983 -4.106,-0.536 -5.224,0.962c-0.655,0.87 -0.894,1.704 -0.737,2.547c0.441,2.345 3.859,4.472 6.354,6.025c0.873,0.545 1.657,1.033 2.222,1.465c2.882,2.187 4.569,4.722 4.885,7.324Z" style="fill:#fff;fill-rule:nonzero;"/><path d="M160.729,149.638c-0.1,0.598 -0.43,1.07 -0.932,1.332c-0.427,0.221 -0.875,0.232 -1.23,0.24l-9.967,0.215c-1.879,0.041 -4.006,-0.041 -5.365,-1.514c-0.324,-0.255 -0.494,-0.74 -0.393,-1.257c0.143,-0.713 0.789,-1.395 1.543,-1.625c0.19,-0.059 0.395,-0.106 0.598,-0.153c0.447,-0.101 0.869,-0.197 1.004,-0.42c0.16,-0.263 -0.086,-0.812 -0.658,-1.472l-7.854,-8.977c-0.904,-1.037 -1.506,-1.289 -1.762,-1.203c-0.32,0.123 -1.353,1.049 -1.287,7.863l0,0.198c0.008,0.787 0.014,1.599 0.258,2.294c0.182,0.52 0.596,1.125 1.197,1.274c0.196,0.047 0.432,0.057 0.68,0.062c0.301,0.006 0.6,0.018 0.891,0.079c1.115,0.23 1.9,0.988 2.105,2.027c0.205,1.037 -0.248,2.131 -1.123,2.721c-0.85,0.572 -2.047,0.73 -3.258,0.73c-0.869,0 -1.74,-0.08 -2.498,-0.152c-0.313,-0.028 -0.603,-0.055 -0.857,-0.074l-7.535,-0.524c-0.373,-0.023 -0.94,-0.064 -1.411,-0.41c-0.776,-0.576 -1.11,-1.203 -0.992,-1.865c0.234,-1.317 2.241,-1.909 3.318,-2.227l0.247,-0.074c0.744,-0.236 1.393,-0.953 1.736,-1.914c0.344,-0.961 0.383,-2.049 0.42,-3.102c0.221,-5.98 0.155,-12.06 0.091,-17.941c-0.078,-7.16 -0.199,-14.013 -0.36,-20.489c-0.028,-1.178 -0.282,-1.844 -0.933,-2.464c-0.154,-0.144 -0.562,-0.337 -0.923,-0.505c-1.034,-0.49 -2.767,-1.307 -2.146,-3.011c0.218,-0.609 0.719,-0.939 1.122,-1.209c0.661,-0.443 1.276,-0.915 1.907,-1.398c2.186,-1.678 4.66,-3.596 7.666,-3.392l0.642,0.041l0.055,0.643c0.68,8.137 0.307,16.608 -0.055,24.796c-0.164,3.803 -0.337,7.737 -0.398,11.546c-0.016,1.034 0.125,2.321 0.885,2.575c0.543,0.187 1.252,-0.231 1.814,-0.612c2.123,-1.437 4.063,-3.152 5.758,-5.094c0.152,-0.177 0.354,-0.387 0.572,-0.622c1.412,-1.496 2.065,-2.414 1.946,-2.736c0,-0.002 -0.133,-0.195 -0.916,-0.267c-2.059,-0.19 -2.575,-1.092 -2.645,-1.817c-0.084,-0.915 0.619,-1.657 1.356,-1.917c0.179,-0.063 0.353,-0.102 0.529,-0.127c0.443,-0.065 0.877,-0.027 1.26,0.003c3.531,0.288 7.039,0.163 10.48,-0.357c0.496,-0.077 1.172,-0.176 1.791,0.16c0.561,0.299 0.891,0.861 0.916,1.539c0.029,0.863 -0.457,1.785 -1.18,2.24c-0.72,0.458 -1.511,0.577 -2.271,0.69c-0.297,0.045 -0.59,0.088 -0.875,0.153c-1.774,0.416 -3.24,1.795 -4.529,3.016l-6.084,5.738c-0.008,0.162 0.076,1.709 6.931,8.873l0.321,0.336c0.322,0.34 0.656,0.707 1.002,1.08c1.818,1.984 3.876,4.234 6.148,5.045l0.393,0.137c0.738,0.25 1.576,0.533 2.205,1.183c0.515,0.537 0.771,1.358 0.65,2.092Z" style="fill:#fff;fill-rule:nonzero;"/><path d="M80.634,181.683c0.567,4.654 -3.118,8.402 -6.439,10.197c-2.254,1.215 -4.636,1.832 -6.866,1.832c-1.578,0 -3.08,-0.306 -4.415,-0.931c-3.093,-1.455 -5.145,-4.965 -4.768,-8.164c0.081,-0.696 0.274,-1.364 0.574,-1.991c0.109,-0.218 0.432,-0.896 1.151,-1.072c0.446,-0.119 1.127,-0.051 1.859,0.871c0.487,0.615 0.942,1.283 1.395,1.953c1.194,1.758 2.321,3.416 4.081,4.102c1.614,0.629 3.59,0.213 4.805,-1.024c1.214,-1.234 1.608,-3.213 0.955,-4.816c-0.82,-2.02 -2.867,-3.098 -5.03,-4.236c-1.334,-0.705 -2.711,-1.432 -3.865,-2.416c-1.946,-1.661 -3.144,-4.219 -3.278,-7.012c-0.138,-2.797 0.803,-5.459 2.584,-7.305c1.751,-1.818 4.323,-2.855 7.075,-2.855l0.122,0c2.35,0.025 4.558,0.804 6.233,2.168c0.198,-0.502 0.444,-0.987 0.732,-1.446c0.229,-0.359 0.557,-0.789 1.115,-0.931c0.4,-0.098 0.81,-0.028 1.157,0.209c0.593,0.41 0.884,1.207 0.96,1.818c0.359,2.885 0.015,4.783 -1.027,5.647c-0.431,0.357 -1.206,0.711 -2.425,0.312c-1.086,-0.353 -1.901,-1.166 -2.69,-1.951c-0.51,-0.512 -0.998,-0.998 -1.495,-1.283c-1.713,-0.983 -4.107,-0.537 -5.225,0.963c-0.653,0.869 -0.892,1.701 -0.735,2.545c0.441,2.347 3.858,4.474 6.355,6.029c0.873,0.543 1.656,1.029 2.221,1.463c2.882,2.189 4.569,4.72 4.884,7.324Z" style="fill:#fff;fill-rule:nonzero;"/><path d="M103.421,186.634c0.461,0.318 0.683,0.916 0.599,1.594c-0.194,1.611 -1.582,2.91 -3.916,3.652c-1.93,0.612 -3.975,0.924 -6.011,0.924c-0.654,0 -1.307,-0.033 -1.958,-0.098c-1.094,-0.111 -2.481,-0.355 -3.52,-1.265c-1.379,-1.207 -1.656,-3.084 -1.807,-4.748c-0.546,-5.883 -0.616,-11.856 -0.21,-17.756c0.091,-1.342 0.184,-2.697 -0.344,-3.764c-0.275,-0.551 -0.823,-1.015 -1.404,-1.18c-0.272,-0.08 -0.669,-0.123 -1.019,0.092l-0.576,0.352l-0.408,-0.529c-0.455,-0.594 -0.604,-1.377 -0.4,-2.102l0.128,-0.459l0.47,-0.072c3.124,-0.51 5.982,-2.565 7.453,-5.364c0.272,-0.517 0.55,-0.894 0.859,-1.152c0.458,-0.373 0.982,-0.484 1.482,-0.32c0.525,0.178 1.144,0.697 1.115,2.17l-0.056,2.58c1.673,0.293 3.366,0.398 5.074,0.312l0.298,-0.019c1.197,-0.071 2.554,-0.147 3.708,0.562c0.828,0.51 1.357,1.53 1.313,2.535c-0.035,0.793 -0.428,1.436 -1.083,1.766l-0.182,0.09l-6.792,-0.414c-0.701,-0.039 -1.471,-0.053 -1.835,0.334c-0.279,0.287 -0.346,0.826 -0.393,1.357c-0.536,6.199 -0.966,12.723 0.155,18.352c0.435,2.197 1.229,3.488 2.358,3.84c1.002,0.312 2.097,-0.159 3.257,-0.661c0.726,-0.314 1.479,-0.636 2.276,-0.8c0.21,-0.045 0.844,-0.178 1.369,0.191Z" style="fill:#fff;fill-rule:nonzero;"/><path d="M142.749,190.122c-0.592,0.577 -1.358,0.838 -2.084,1.065c-2.901,0.883 -5.885,1.515 -8.88,1.887c-0.234,0.027 -0.843,0.107 -1.274,-0.344c-0.338,-0.35 -0.347,-0.803 -0.347,-1.026l-0.032,-2.578c0,-0.14 -0.009,-0.232 -0.015,-0.293c-0.045,0.034 -0.132,0.078 -0.254,0.16c-2.333,1.502 -4.743,3.055 -7.523,3.829c-1.115,0.308 -2.215,0.461 -3.272,0.461c-1.992,0 -3.824,-0.54 -5.272,-1.596c-3.518,-2.563 -4.098,-7.332 -4.2,-12.108l-0.222,-10.357c-0.076,-3.662 -0.903,-5.688 -2.528,-6.301l-0.318,-0.121l0,-0.002c-0.305,-0.121 -0.73,-0.336 -0.952,-0.803c-0.17,-0.355 -0.173,-0.753 -0.005,-1.117c0.285,-0.631 1.021,-1.029 1.613,-1.193c1.869,-0.518 3.79,-0.906 5.707,-1.154c0.99,-0.129 2.406,-0.186 3.234,0.841c0.581,0.715 0.584,1.647 0.586,2.264c0.012,2.047 -0.081,4.16 -0.179,6.398c-0.219,4.971 -0.448,10.11 0.539,14.549c0.452,2.035 1.533,3.67 2.966,4.483c1.691,0.963 4.089,0.906 6.58,-0.164c1.586,-0.676 2.629,-1.494 3.19,-2.498c0.73,-1.309 0.666,-2.987 0.607,-4.469l-0.551,-13.848c-0.038,-0.953 -0.156,-1.886 -0.725,-2.252c-0.271,-0.174 -0.703,-0.285 -1.12,-0.394c-0.868,-0.225 -2.178,-0.571 -2.196,-1.92l-0.006,-0.559l0.538,-0.164c3.092,-0.933 6.275,-1.654 9.465,-2.148c0.346,-0.053 1.068,-0.164 1.605,0.328c0.551,0.508 0.489,1.258 0.461,1.619c-0.717,8.486 -0.642,17.094 0.213,25.584c0.02,0.199 0.07,0.672 0.221,0.791c0.123,0.094 0.476,0.09 0.672,0.086l4.029,-0.047l0.223,0.363c0.57,0.94 0.181,2.094 -0.494,2.748Z" style="fill:#fff;fill-rule:nonzero;"/><path d="M166.625,187.398c1.813,-0.547 3.213,-1.719 3.754,-3.141c0.43,-1.137 0.348,-2.445 0.274,-3.711l-0.574,-9.258c-0.161,-2.595 -0.401,-4.877 -1.711,-6.552c-1.133,-1.442 -3.053,-2.303 -5.141,-2.307l-0.018,0c-2.625,0 -4.962,1.004 -6.757,2.9c-2.301,2.434 -3.551,6.123 -3.336,9.873c0.215,3.784 1.674,7.264 4.006,9.545c0.875,0.862 1.941,1.586 3.076,2.098c2.133,0.961 4.416,1.152 6.427,0.553Zm16.799,3.33c-0.773,1.008 -2.006,1.412 -3.109,1.674c-1.938,0.461 -3.91,0.691 -5.887,0.691c-0.801,0 -1.601,-0.039 -2.4,-0.111c-0.445,-0.043 -1.49,-0.139 -2.008,-0.985c-0.391,-0.634 -0.273,-1.353 -0.182,-1.931c0.045,-0.246 0.118,-0.707 0.036,-0.772c0,0.002 -0.204,-0.107 -0.967,0.444c-3.975,2.855 -9.338,3.703 -13.998,2.201c-1.758,-0.561 -4.196,-1.709 -5.852,-3.975c-1.201,-1.64 -1.787,-3.596 -2.244,-5.461c-2.002,-8.211 0.988,-16.666 7.441,-21.037c4.239,-2.869 9.686,-2.846 14.471,-2.594c0.297,0.014 0.936,0.049 1.133,-0.181c0.144,-0.168 0.16,-0.574 0.168,-0.846l0.404,-11.342c0.053,-1.433 0.039,-2.797 -0.689,-3.703c-0.268,-0.332 -0.649,-0.629 -1.051,-0.941c-0.744,-0.573 -1.588,-1.223 -1.844,-2.305c-0.34,-1.439 0.543,-2.924 2.49,-4.178c1.823,-1.174 3.772,-2.168 5.799,-2.947c1.203,-0.465 1.785,0.004 2.026,0.324c0.263,0.352 0.279,0.75 0.287,0.987c0.279,8.095 0.039,16.316 -0.198,24.265c-0.232,7.84 -0.47,15.938 -0.205,23.895c0.061,1.855 0.2,3.621 1.202,4.877c0.132,0.17 0.298,0.324 0.488,0.463c0.617,0.451 1.426,0.664 2.098,0.543c0.447,-0.077 0.789,-0.282 1.015,-0.608l0.361,-0.523l0.573,0.269c0.572,0.274 0.976,0.791 1.14,1.455c0.19,0.807 0.002,1.707 -0.498,2.352Z" style="fill:#fff;fill-rule:nonzero;"/><path d="M202.129,190.497c-0.162,1.248 -1.853,1.819 -2.367,1.967c-1.453,0.412 -3.205,0.494 -4.84,0.494c-0.591,0 -1.168,-0.011 -1.711,-0.019l-0.425,-0.01c-2.018,-0.035 -4.043,-0.16 -6.012,-0.379c-0.223,-0.025 -0.565,-0.06 -0.889,-0.242c-0.492,-0.279 -0.767,-0.777 -0.758,-1.369c0.012,-0.776 0.502,-1.572 1.198,-1.94c0.455,-0.24 0.937,-0.349 1.363,-0.445c0.373,-0.084 0.723,-0.164 1.002,-0.309c1.102,-0.586 1.275,-2.304 1.301,-3.738l0.277,-14.654c0.031,-1.635 0.057,-2.979 -0.81,-4.037c-0.129,-0.157 -0.385,-0.33 -0.631,-0.5c-0.682,-0.465 -2.096,-1.44 -0.94,-3.135c0.326,-0.479 0.821,-0.736 1.178,-0.928l5.049,-2.642c1.482,-0.776 2.705,-0.717 3.367,0.16c0.439,0.588 0.4,1.305 0.373,1.777c-0.309,4.975 -0.424,10.026 -0.344,15.01c0.032,1.65 0.102,3.297 0.172,4.943c0.041,0.932 0.082,1.866 0.113,2.801c0.018,0.498 -0.058,1.045 -0.132,1.576c-0.202,1.428 -0.266,2.323 0.511,2.703c0.336,0.164 0.703,0.26 1.067,0.356c0.523,0.142 1.068,0.291 1.584,0.597c0.961,0.569 1.4,1.231 1.304,1.963Z" style="fill:#fff;fill-rule:nonzero;"/><path d="M222.907,188.55c3.801,-0.666 6.174,-4.516 7.052,-7.609c1.315,-4.623 0.592,-9.924 -1.935,-14.178c-1.682,-2.834 -4.174,-4.459 -6.65,-4.459c-0.53,0 -1.059,0.072 -1.581,0.225c-0.984,0.289 -1.933,0.849 -2.828,1.664c-2.041,1.863 -3.32,4.748 -3.912,8.806c-0.636,4.348 -0.209,7.955 1.268,10.729c1.531,2.879 4.982,5.457 8.586,4.822Zm15.761,-9.963c-0.851,4.973 -3.798,9.446 -7.88,11.963c-2.688,1.66 -5.819,2.471 -8.95,2.471c-4.046,0 -8.095,-1.356 -11.205,-3.998c-5.638,-4.783 -7.4,-12.447 -4.494,-19.522c2.904,-7.076 9.516,-11.269 16.918,-10.73c7.219,0.547 13.697,6.047 15.41,13.08c0.528,2.168 0.596,4.435 0.201,6.736Z" style="fill:#fff;fill-rule:nonzero;"/></g></svg>